<?xml version="1.0" encoding="iso-8859-1"?>
<svg version="1.1" id="Layer_1" xmlns="http://www.w3.org/2000/svg" xmlns:xlink="http://www.w3.org/1999/xlink" x="0px" y="0px" viewBox="0 0 512.001 512.001" style="enable-background:new 0 0 512.001 512.001;" xml:space="preserve">
    <path style="fill:#598BC8;" d="M366.398,70.071l0.893,84.849c0.121,12.242,12.842,20.132,23.761,15.063l10.92-5.036l100.291-46.193
	c5.985-2.758,9.792-8.776,9.737-15.364c-0.056-6.588-3.975-12.528-10.004-15.185L394.022,40.772L366.398,70.071z" />
    <path style="fill:#649CE2;" d="M391.633,39.544c-5.902-2.513-13.296-1.331-18.256,3.629L272.885,143.664
	c-6.543,6.543-6.543,17.151,0,23.683l100.492,100.492c3.205,3.205,7.492,4.913,11.847,4.913c2.155,0,4.332-0.413,6.409-1.284
	c6.253-2.579,10.34-8.687,10.34-15.465V55.019C401.972,48.241,397.877,42.125,391.633,39.544z" />
    <path style="fill:#598BC8;" d="M201.882,446.163v-89.098c-0.056-5.683-2.981-10.954-7.783-14.002
	c-4.79-3.026-10.797-3.45-15.978-1.061l-10.63,4.902l-100.57,46.338c-5.985,2.758-9.804,8.765-9.748,15.353
	c0.067,6.599,3.986,12.539,10.016,15.185l109.101,47.935L201.882,446.163z" />
    <path style="fill:#649CE2;" d="M296.568,344.648L196.076,244.156c-4.779-4.79-11.981-6.23-18.256-3.629
	c-6.253,2.59-10.328,8.698-10.328,15.476v200.984c0,6.208,3.417,11.847,8.799,14.728c1.743,0.99,4.675,2.021,7.939,2.021
	c8.241,0,11.849-4.915,17.675-10.741l94.663-94.663C303.111,361.799,303.111,351.191,296.568,344.648z" />
    <path style="fill:#8BCAFC;" d="M284.728,373.241c-4.285,0-8.571-1.636-11.841-4.907L4.909,100.355
	c-4.792-4.786-6.227-11.993-3.631-18.253c2.589-6.258,8.696-10.337,15.472-10.337h200.984c4.443,0,8.701,1.766,11.841,4.907
	l167.487,167.487c6.542,6.536,6.542,17.146,0,23.684L296.57,368.334C293.299,371.605,289.014,373.241,284.728,373.241z" />
    <path style="fill:#7EBCEF;" d="M284.728,373.241c4.285,0,8.571-1.636,11.841-4.907l50.246-50.246L100.493,71.765H16.75
	c-6.777,0-12.883,4.078-15.472,10.337c-2.595,6.258-1.161,13.467,3.631,18.254l267.979,267.979
	C276.158,371.605,280.443,373.241,284.728,373.241z" />
</svg>
